<?xml version="1.0" encoding="UTF-8"?>
<!DOCTYPE svg PUBLIC "-//W3C//DTD SVG 1.1//EN" "http://www.w3.org/Graphics/SVG/1.1/DTD/svg11.dtd">
<svg xmlns="http://www.w3.org/2000/svg" version="1.1" width="512px" height="512px" style="shape-rendering:geometricPrecision; text-rendering:geometricPrecision; image-rendering:optimizeQuality; fill-rule:evenodd; clip-rule:evenodd" xmlns:xlink="http://www.w3.org/1999/xlink">
<g><path style="opacity:0.986" fill="#000000" d="M 162.5,32.5 C 206.801,30.7171 237.635,50.0505 255,90.5C 266.071,127.05 258.237,158.883 231.5,186C 203.632,208.889 172.632,214.222 138.5,202C 95.1015,180.368 77.9349,145.534 87,97.5C 99.0723,60.5926 124.239,38.9259 162.5,32.5 Z"/></g>
<g><path style="opacity:0.987" fill="#000000" d="M 511.5,311.5 C 511.5,315.833 511.5,320.167 511.5,324.5C 503.581,340.416 491.581,344.25 475.5,336C 471.948,332.781 468.115,329.948 464,327.5C 463.667,369.833 463.333,412.167 463,454.5C 458.985,467.181 450.485,475.014 437.5,478C 422.17,478.5 406.837,478.667 391.5,478.5C 391.667,442.498 391.5,406.498 391,370.5C 389.99,366.157 387.49,362.99 383.5,361C 376.241,359.887 368.908,359.387 361.5,359.5C 354.092,359.387 346.759,359.887 339.5,361C 335.872,363.638 333.372,367.138 332,371.5C 331.5,407.165 331.333,442.832 331.5,478.5C 316.163,478.667 300.83,478.5 285.5,478C 272.11,474.944 263.61,466.777 260,453.5C 259.667,411.5 259.333,369.5 259,327.5C 252.851,332.823 246.018,336.989 238.5,340C 219.167,341 210.334,331.833 212,312.5C 213.181,308.637 215.014,305.137 217.5,302C 261.887,269.28 306.554,236.946 351.5,205C 359.835,201.374 367.835,202.041 375.5,207C 417.887,238.387 460.553,269.387 503.5,300C 506.839,303.482 509.506,307.315 511.5,311.5 Z"/></g>
<g><path style="opacity:0.987" fill="#000000" d="M -0.5,382.5 C -0.5,377.167 -0.5,371.833 -0.5,366.5C 10.2462,302.186 45.2462,256.353 104.5,229C 152.255,210.221 199.589,211.221 246.5,232C 254.667,235.913 262.333,240.58 269.5,246C 250.167,260 230.833,274 211.5,288C 194.944,302.868 192.111,320.035 203,339.5C 213.767,352.923 227.6,357.923 244.5,354.5C 244.5,366.167 244.5,377.833 244.5,389.5C 165.499,389.667 86.4993,389.5 7.5,389C 4.03864,387.695 1.37197,385.529 -0.5,382.5 Z"/></g>
</svg>
